<svg xmlns="http://www.w3.org/2000/svg" viewBox="0 0 953 773" width="100%" style="max-width:953px;background:#F7FBFE;border:1px solid #DCE6F0;border-radius:12px;font-family:Inter,system-ui,sans-serif">
<text x="78" y="26" font-size="16" font-weight="700" fill="#1C3883">East node - Hebron, KY  |  49,000 sq ft leased</text>
<text x="78" y="45" font-size="11.5" fill="#5A6B85">Single shift, six days. Flow runs left to right: receive, store, pick, sort, pack, ship. 73.2% of network volume.</text>
<rect x="78.0" y="116.0" width="615.0" height="525.0" fill="#fff" stroke="#1C3883" stroke-width="3"/>
<rect x="78.0" y="116.0" width="126.0" height="285.0" fill="#7A8DB8" fill-opacity="0.30" stroke="#7A8DB8" stroke-width="1.5"/>
<text x="141" y="254" text-anchor="middle" font-size="11" font-weight="700" fill="#16233F">Inbound receiving</text>
<text x="141" y="268" text-anchor="middle" font-size="9.5" fill="#5A6B85">4,000 sq ft</text>
<rect x="78.0" y="401.0" width="126.0" height="240.0" fill="#A9BDDD" fill-opacity="0.30" stroke="#A9BDDD" stroke-width="1.5"/>
<text x="141" y="517" text-anchor="middle" font-size="11" font-weight="700" fill="#16233F">Returns</text>
<text x="141" y="531" text-anchor="middle" font-size="9.5" fill="#5A6B85">3,400 sq ft</text>
<rect x="216.0" y="116.0" width="156.0" height="360.0" fill="#1C3883" fill-opacity="0.30" stroke="#1C3883" stroke-width="1.5"/>
<text x="294" y="292" text-anchor="middle" font-size="11" font-weight="700" fill="#16233F">Reserve racking</text>
<text x="294" y="306" text-anchor="middle" font-size="9.5" fill="#5A6B85">6,284 sq ft</text>
<rect x="216.0" y="488.0" width="156.0" height="153.0" fill="#3E6BB5" fill-opacity="0.30" stroke="#3E6BB5" stroke-width="1.5"/>
<text x="294" y="560" text-anchor="middle" font-size="11" font-weight="700" fill="#16233F">Forward pick</text>
<text x="294" y="574" text-anchor="middle" font-size="9.5" fill="#5A6B85">4,600 sq ft</text>
<rect x="390.0" y="194.0" width="120.0" height="117.0" fill="#479FDB" fill-opacity="0.30" stroke="#479FDB" stroke-width="1.5"/>
<text x="450" y="248" text-anchor="middle" font-size="11" font-weight="700" fill="#16233F">Sortation system</text>
<text x="450" y="262" text-anchor="middle" font-size="9.5" fill="#5A6B85">4,660 sq ft</text>
<rect x="390.0" y="332.0" width="120.0" height="96.0" fill="#8BCFF2" fill-opacity="0.30" stroke="#8BCFF2" stroke-width="1.5"/>
<text x="450" y="376" text-anchor="middle" font-size="11" font-weight="700" fill="#16233F">Pack stations</text>
<text x="450" y="390" text-anchor="middle" font-size="9.5" fill="#5A6B85">3,781 sq ft</text>
<rect x="528.0" y="116.0" width="150.0" height="159.0" fill="#C9D8EC" fill-opacity="0.30" stroke="#C9D8EC" stroke-width="1.5"/>
<text x="603" y="192" text-anchor="middle" font-size="11" font-weight="700" fill="#16233F">Office</text>
<text x="603" y="206" text-anchor="middle" font-size="9.5" fill="#5A6B85">5,400 sq ft</text>
<rect x="528.0" y="296.0" width="150.0" height="345.0" fill="#5C7FC0" fill-opacity="0.30" stroke="#5C7FC0" stroke-width="1.5"/>
<text x="603" y="464" text-anchor="middle" font-size="11" font-weight="700" fill="#16233F">Outbound</text>
<text x="603" y="478" text-anchor="middle" font-size="9.5" fill="#5A6B85">8,000 sq ft</text>
<rect x="69.0" y="158.0" width="9" height="21.0" fill="#1C3883"/>
<rect x="69.0" y="191.0" width="9" height="21.0" fill="#1C3883"/>
<rect x="69.0" y="224.0" width="9" height="21.0" fill="#1C3883"/>
<rect x="69.0" y="257.0" width="9" height="21.0" fill="#1C3883"/>
<text x="52" y="224" text-anchor="middle" font-size="10" font-weight="700" letter-spacing="1" fill="#1C3883" transform="rotate(-90 52 224)">INBOUND</text>
<rect x="693.0" y="314.0" width="9" height="21.0" fill="#1C3883"/>
<rect x="693.0" y="347.0" width="9" height="21.0" fill="#1C3883"/>
<rect x="693.0" y="380.0" width="9" height="21.0" fill="#1C3883"/>
<rect x="693.0" y="413.0" width="9" height="21.0" fill="#1C3883"/>
<rect x="693.0" y="446.0" width="9" height="21.0" fill="#1C3883"/>
<rect x="693.0" y="479.0" width="9" height="21.0" fill="#1C3883"/>
<text x="723" y="413" text-anchor="middle" font-size="10" font-weight="700" letter-spacing="1" fill="#1C3883" transform="rotate(90 723 413)">OUTBOUND</text>
<defs><marker id="ah" markerWidth="9" markerHeight="7" refX="8" refY="3.5" orient="auto"><polygon points="0 0, 9 3.5, 0 7" fill="#5A6B85"/></marker></defs>
<line x1="96" y1="667" x2="675" y2="667" stroke="#5A6B85" stroke-width="1.4" stroke-dasharray="5,4" marker-end="url(#ah)"/>
<text x="386" y="682" text-anchor="middle" font-size="10" fill="#5A6B85">receive → store → pick → sort → pack → ship</text>
<text x="386" y="699" text-anchor="middle" font-size="11" fill="#5A6B85">205 ft</text>
<text x="44" y="378" text-anchor="middle" font-size="11" fill="#5A6B85" transform="rotate(-90 44 378)">175 ft</text>
<text x="745.0" y="122.0" font-size="11" font-weight="700" fill="#16233F">Zones</text>
<rect x="745.0" y="131.0" width="12" height="12" fill="#1C3883" fill-opacity="0.55" stroke="#1C3883"/>
<text x="763.0" y="141.0" font-size="10" fill="#5A6B85">Reserve racking</text>
<rect x="745.0" y="150.0" width="12" height="12" fill="#3E6BB5" fill-opacity="0.55" stroke="#3E6BB5"/>
<text x="763.0" y="160.0" font-size="10" fill="#5A6B85">Forward pick faces</text>
<rect x="745.0" y="169.0" width="12" height="12" fill="#479FDB" fill-opacity="0.55" stroke="#479FDB"/>
<text x="763.0" y="179.0" font-size="10" fill="#5A6B85">Sortation system</text>
<rect x="745.0" y="188.0" width="12" height="12" fill="#8BCFF2" fill-opacity="0.55" stroke="#8BCFF2"/>
<text x="763.0" y="198.0" font-size="10" fill="#5A6B85">Pack stations</text>
<rect x="745.0" y="207.0" width="12" height="12" fill="#7A8DB8" fill-opacity="0.55" stroke="#7A8DB8"/>
<text x="763.0" y="217.0" font-size="10" fill="#5A6B85">Inbound receiving</text>
<rect x="745.0" y="226.0" width="12" height="12" fill="#5C7FC0" fill-opacity="0.55" stroke="#5C7FC0"/>
<text x="763.0" y="236.0" font-size="10" fill="#5A6B85">Outbound &amp; mail staging</text>
<rect x="745.0" y="245.0" width="12" height="12" fill="#A9BDDD" fill-opacity="0.55" stroke="#A9BDDD"/>
<text x="763.0" y="255.0" font-size="10" fill="#5A6B85">Returns</text>
<rect x="745.0" y="264.0" width="12" height="12" fill="#C9D8EC" fill-opacity="0.55" stroke="#C9D8EC"/>
<text x="763.0" y="274.0" font-size="10" fill="#5A6B85">Office &amp; welfare</text>
<text x="745.0" y="306.0" font-size="9.5" fill="#5A6B85">White space = aisles</text>
<text x="745.0" y="320.0" font-size="9.5" fill="#5A6B85">and circulation (22%)</text>
</svg>