<svg xmlns="http://www.w3.org/2000/svg" viewBox="-16 -46 839.5 535.5" width="100%" style="max-width:1150px;background:#FBFCFE;border:1px solid #DCE6F0;border-radius:12px;font-family:Inter,system-ui,sans-serif"><text x="-2" y="-24" font-size="16" font-weight="700" fill="#1C3883">West node - Las Vegas, NV  |  site plan  |  building 24,500 sq ft (175 x 140 ft)</text><text x="-2" y="-6" font-size="11.5" fill="#5A6B85">Roughly 2.4 acres. Cross-dock: inbound west, outbound east with trailer storage, staff parking across the front. Courts sized for 53 ft trailers.</text><rect x="0" y="0" width="808" height="466" fill="#F4F6F3" stroke="#C9D3C6" stroke-width="1.2" rx="3"/><rect x="228" y="104" width="332" height="266" fill="#E9EDF3" stroke="#9AA9BE" stroke-width="1.2" rx="4"/><text x="394" y="222" font-size="12" font-weight="700" fill="#1C3883" text-anchor="middle">Building</text><text x="394" y="253" font-size="11" font-weight="400" fill="#5A6B85" text-anchor="middle">24,500 sq ft (175 x 140 ft)</text><rect x="11" y="104" width="205" height="266" fill="#E2E6EB" stroke="#B9C2CC" stroke-width="1.2" rx="3"/><text x="114" y="226" font-size="12" font-weight="700" fill="#1C3883" text-anchor="middle">Inbound truck court</text><text x="114" y="255" font-size="10.5" font-weight="400" fill="#5A6B85" text-anchor="middle">120 ft deep</text><rect x="572" y="104" width="224" height="266" fill="#E2E6EB" stroke="#B9C2CC" stroke-width="1.2" rx="3"/><text x="684" y="129" font-size="12" font-weight="700" fill="#1C3883" text-anchor="middle">Outbound truck court</text><text x="684" y="156" font-size="10.5" font-weight="400" fill="#5A6B85" text-anchor="middle">130 ft deep + trailer storage</text><rect x="720" y="175" width="65" height="23" fill="#CBD4DD" stroke="#9FACB9" stroke-width="1.2" rx="2"/><rect x="720" y="232" width="65" height="23" fill="#CBD4DD" stroke="#9FACB9" stroke-width="1.2" rx="2"/><rect x="720" y="289" width="65" height="23" fill="#CBD4DD" stroke="#9FACB9" stroke-width="1.2" rx="2"/><rect x="720" y="346" width="65" height="23" fill="#CBD4DD" stroke="#9FACB9" stroke-width="1.2" rx="2"/><text x="752" y="426" font-size="9.5" font-weight="400" fill="#5A6B85" text-anchor="middle">trailer storage</text><rect x="171" y="15" width="446" height="65" fill="#DCE2E9" stroke="#AEB9C5" stroke-width="1.2" rx="3"/><text x="394" y="51" font-size="11" font-weight="700" fill="#1C3883" text-anchor="middle">Staff parking - 22 spaces</text><rect x="186" y="23" width="11" height="21" fill="#B7C2CE" stroke="#93A2B1" stroke-width="1.2" rx="1"/><rect x="202" y="23" width="11" height="21" fill="#B7C2CE" stroke="#93A2B1" stroke-width="1.2" rx="1"/><rect x="218" y="23" width="11" height="21" fill="#B7C2CE" stroke="#93A2B1" stroke-width="1.2" rx="1"/><rect x="234" y="23" width="11" height="21" fill="#B7C2CE" stroke="#93A2B1" stroke-width="1.2" rx="1"/><rect x="250" y="23" width="11" height="21" fill="#B7C2CE" stroke="#93A2B1" stroke-width="1.2" rx="1"/><rect x="266" y="23" width="11" height="21" fill="#B7C2CE" stroke="#93A2B1" stroke-width="1.2" rx="1"/><rect x="282" y="23" width="11" height="21" fill="#B7C2CE" stroke="#93A2B1" stroke-width="1.2" rx="1"/><rect x="298" y="23" width="11" height="21" fill="#B7C2CE" stroke="#93A2B1" stroke-width="1.2" rx="1"/><rect x="314" y="23" width="11" height="21" fill="#B7C2CE" stroke="#93A2B1" stroke-width="1.2" rx="1"/><rect x="330" y="23" width="11" height="21" fill="#B7C2CE" stroke="#93A2B1" stroke-width="1.2" rx="1"/><rect x="346" y="23" width="11" height="21" fill="#B7C2CE" stroke="#93A2B1" stroke-width="1.2" rx="1"/><rect x="362" y="23" width="11" height="21" fill="#B7C2CE" stroke="#93A2B1" stroke-width="1.2" rx="1"/><rect x="378" y="23" width="11" height="21" fill="#B7C2CE" stroke="#93A2B1" stroke-width="1.2" rx="1"/><rect x="394" y="23" width="11" height="21" fill="#B7C2CE" stroke="#93A2B1" stroke-width="1.2" rx="1"/><rect x="410" y="23" width="11" height="21" fill="#B7C2CE" stroke="#93A2B1" stroke-width="1.2" rx="1"/><rect x="426" y="23" width="11" height="21" fill="#B7C2CE" stroke="#93A2B1" stroke-width="1.2" rx="1"/><rect x="442" y="23" width="11" height="21" fill="#B7C2CE" stroke="#93A2B1" stroke-width="1.2" rx="1"/><rect x="458" y="23" width="11" height="21" fill="#B7C2CE" stroke="#93A2B1" stroke-width="1.2" rx="1"/><rect x="474" y="23" width="11" height="21" fill="#B7C2CE" stroke="#93A2B1" stroke-width="1.2" rx="1"/><rect x="490" y="23" width="11" height="21" fill="#B7C2CE" stroke="#93A2B1" stroke-width="1.2" rx="1"/><rect x="506" y="23" width="11" height="21" fill="#B7C2CE" stroke="#93A2B1" stroke-width="1.2" rx="1"/><rect x="522" y="23" width="11" height="21" fill="#B7C2CE" stroke="#93A2B1" stroke-width="1.2" rx="1"/><text x="8" y="496" font-size="1" font-weight="700" fill="#1C3883" text-anchor="middle"></text></svg>