<svg xmlns="http://www.w3.org/2000/svg" viewBox="-16 -46 763.5 474.5" width="100%" style="max-width:1150px;background:#FBFCFE;border:1px solid #DCE6F0;border-radius:12px;font-family:Inter,system-ui,sans-serif"><text x="-2" y="-24" font-size="16" font-weight="700" fill="#17306E">West node - Las Vegas, NV  |  site plan  |  building 13,500 sq ft (135 x 100 ft)</text><text x="-2" y="-6" font-size="11.5" fill="#5A6B85">Roughly 1.9 acres. Cross-dock: inbound west, outbound east with trailer storage, staff parking and landscaping across the front. Courts sized for 53 ft trailers.</text><defs><linearGradient id="roofwest" x1="0" y1="0" x2="1" y2="1"><stop offset="0" stop-color="#EDF0F4"/><stop offset="1" stop-color="#D8DEE5"/></linearGradient></defs><rect x="0" y="0" width="732" height="408" fill="#DCE5D8" stroke="#B9C6B2" stroke-width="1.2" rx="6" opacity="1.0"/><circle cx="467" cy="17" r="7" fill="#8FB98A" stroke="#6E9A69" stroke-width="1"/><circle cx="509" cy="397" r="8" fill="#8FB98A" stroke="#6E9A69" stroke-width="1"/><circle cx="25" cy="397" r="8" fill="#8FB98A" stroke="#6E9A69" stroke-width="1"/><circle cx="223" cy="10" r="7" fill="#8FB98A" stroke="#6E9A69" stroke-width="1"/><circle cx="241" cy="14" r="8" fill="#8FB98A" stroke="#6E9A69" stroke-width="1"/><circle cx="77" cy="397" r="6" fill="#8FB98A" stroke="#6E9A69" stroke-width="1"/><circle cx="295" cy="22" r="6" fill="#8FB98A" stroke="#6E9A69" stroke-width="1"/><circle cx="81" cy="12" r="8" fill="#8FB98A" stroke="#6E9A69" stroke-width="1"/><circle cx="69" cy="9" r="7" fill="#8FB98A" stroke="#6E9A69" stroke-width="1"/><circle cx="416" cy="397" r="7" fill="#8FB98A" stroke="#6E9A69" stroke-width="1"/><circle cx="500" cy="21" r="8" fill="#8FB98A" stroke="#6E9A69" stroke-width="1"/><circle cx="128" cy="397" r="6" fill="#8FB98A" stroke="#6E9A69" stroke-width="1"/><circle cx="650" cy="19" r="8" fill="#8FB98A" stroke="#6E9A69" stroke-width="1"/><circle cx="331" cy="397" r="6" fill="#8FB98A" stroke="#6E9A69" stroke-width="1"/><rect x="8" y="87" width="716" height="302" fill="#C6CCD3" stroke="#AAB2BB" stroke-width="1.2" rx="4" opacity="1.0"/><rect x="228" y="104" width="256" height="190" fill="url(#roofwest)" stroke="#95A2B1" stroke-width="1.6" rx="4" opacity="1.0"/><rect x="258" y="124" width="30" height="17" fill="#E9F2FA" stroke="#AFC4D8" stroke-width="0.8" rx="2" opacity="1.0"/><rect x="270" y="247" width="19" height="17" fill="#B9C2CC" stroke="#95A2B1" stroke-width="0.8" rx="2" opacity="1.0"/><rect x="338" y="124" width="30" height="17" fill="#E9F2FA" stroke="#AFC4D8" stroke-width="0.8" rx="2" opacity="1.0"/><rect x="350" y="247" width="19" height="17" fill="#B9C2CC" stroke="#95A2B1" stroke-width="0.8" rx="2" opacity="1.0"/><rect x="418" y="124" width="30" height="17" fill="#E9F2FA" stroke="#AFC4D8" stroke-width="0.8" rx="2" opacity="1.0"/><rect x="429" y="247" width="19" height="17" fill="#B9C2CC" stroke="#95A2B1" stroke-width="0.8" rx="2" opacity="1.0"/><text x="356" y="188" font-size="12" font-weight="700" fill="#17306E" text-anchor="middle">Building</text><text x="356" y="217" font-size="11" font-weight="400" fill="#5A6B85" text-anchor="middle">13,500 sq ft (135 x 100 ft)</text><text x="114" y="125" font-size="12" font-weight="700" fill="#17306E" text-anchor="middle">Inbound truck court</text><text x="114" y="152" font-size="10.5" font-weight="400" fill="#5A6B85" text-anchor="middle">120 ft deep</text><text x="608" y="125" font-size="12" font-weight="700" fill="#17306E" text-anchor="middle">Outbound truck court</text><text x="608" y="152" font-size="10.5" font-weight="400" fill="#5A6B85" text-anchor="middle">130 ft deep + trailer storage</text><rect x="141" y="180" width="84" height="19" fill="#E4E8EC" stroke="#9AA6B2" stroke-width="1.2" rx="2" opacity="1.0"/><rect x="125" y="182" width="15" height="15" fill="#42566E" stroke="#2E3E52" stroke-width="1.2" rx="2" opacity="1.0"/><rect x="141" y="222" width="84" height="19" fill="#E4E8EC" stroke="#9AA6B2" stroke-width="1.2" rx="2" opacity="1.0"/><rect x="125" y="224" width="15" height="15" fill="#42566E" stroke="#2E3E52" stroke-width="1.2" rx="2" opacity="1.0"/><rect x="488" y="175" width="84" height="19" fill="#E4E8EC" stroke="#9AA6B2" stroke-width="1.2" rx="2" opacity="1.0"/><rect x="572" y="177" width="15" height="15" fill="#42566E" stroke="#2E3E52" stroke-width="1.2" rx="2" opacity="1.0"/><rect x="488" y="203" width="84" height="19" fill="#E4E8EC" stroke="#9AA6B2" stroke-width="1.2" rx="2" opacity="1.0"/><rect x="572" y="205" width="15" height="15" fill="#42566E" stroke="#2E3E52" stroke-width="1.2" rx="2" opacity="1.0"/><rect x="488" y="232" width="84" height="19" fill="#E4E8EC" stroke="#9AA6B2" stroke-width="1.2" rx="2" opacity="1.0"/><rect x="572" y="234" width="15" height="15" fill="#42566E" stroke="#2E3E52" stroke-width="1.2" rx="2" opacity="1.0"/><rect x="633" y="171" width="84" height="19" fill="#D3D9DF" stroke="#A5AFBA" stroke-width="1.2" rx="2" opacity="1.0"/><rect x="633" y="203" width="84" height="19" fill="#D3D9DF" stroke="#A5AFBA" stroke-width="1.2" rx="2" opacity="1.0"/><rect x="633" y="236" width="84" height="19" fill="#D3D9DF" stroke="#A5AFBA" stroke-width="1.2" rx="2" opacity="1.0"/><rect x="633" y="268" width="84" height="19" fill="#D3D9DF" stroke="#A5AFBA" stroke-width="1.2" rx="2" opacity="1.0"/><rect x="633" y="300" width="84" height="19" fill="#D3D9DF" stroke="#A5AFBA" stroke-width="1.2" rx="2" opacity="1.0"/><text x="674" y="355" font-size="9.5" font-weight="400" fill="#5A6B85" text-anchor="middle">trailer storage</text><rect x="163" y="15" width="386" height="61" fill="#BBC3CC" stroke="#9AA6B2" stroke-width="1.2" rx="3" opacity="1.0"/><text x="356" y="82" font-size="11" font-weight="700" fill="#17306E" text-anchor="middle">Staff parking - 20 spaces</text><line x1="172" y1="19" x2="172" y2="68" stroke="#E6EAEE" stroke-width="1"/><rect x="175" y="23" width="10" height="21" fill="#8FA8C4" stroke="#7C8896" stroke-width="0.8" rx="2" opacity="1.0"/><line x1="190" y1="19" x2="190" y2="68" stroke="#E6EAEE" stroke-width="1"/><rect x="193" y="23" width="10" height="21" fill="#B6A6C9" stroke="#7C8896" stroke-width="0.8" rx="2" opacity="1.0"/><line x1="208" y1="19" x2="208" y2="68" stroke="#E6EAEE" stroke-width="1"/><rect x="211" y="23" width="10" height="21" fill="#B6A6C9" stroke="#7C8896" stroke-width="0.8" rx="2" opacity="1.0"/><line x1="226" y1="19" x2="226" y2="68" stroke="#E6EAEE" stroke-width="1"/><line x1="245" y1="19" x2="245" y2="68" stroke="#E6EAEE" stroke-width="1"/><rect x="247" y="23" width="10" height="21" fill="#9DBB9A" stroke="#7C8896" stroke-width="0.8" rx="2" opacity="1.0"/><line x1="263" y1="19" x2="263" y2="68" stroke="#E6EAEE" stroke-width="1"/><rect x="266" y="23" width="10" height="21" fill="#A8B7C6" stroke="#7C8896" stroke-width="0.8" rx="2" opacity="1.0"/><line x1="281" y1="19" x2="281" y2="68" stroke="#E6EAEE" stroke-width="1"/><rect x="284" y="23" width="10" height="21" fill="#A8B7C6" stroke="#7C8896" stroke-width="0.8" rx="2" opacity="1.0"/><line x1="299" y1="19" x2="299" y2="68" stroke="#E6EAEE" stroke-width="1"/><line x1="317" y1="19" x2="317" y2="68" stroke="#E6EAEE" stroke-width="1"/><rect x="320" y="23" width="10" height="21" fill="#B6A6C9" stroke="#7C8896" stroke-width="0.8" rx="2" opacity="1.0"/><line x1="335" y1="19" x2="335" y2="68" stroke="#E6EAEE" stroke-width="1"/><rect x="338" y="23" width="10" height="21" fill="#B6A6C9" stroke="#7C8896" stroke-width="0.8" rx="2" opacity="1.0"/><line x1="353" y1="19" x2="353" y2="68" stroke="#E6EAEE" stroke-width="1"/><line x1="372" y1="19" x2="372" y2="68" stroke="#E6EAEE" stroke-width="1"/><rect x="374" y="23" width="10" height="21" fill="#8FA8C4" stroke="#7C8896" stroke-width="0.8" rx="2" opacity="1.0"/><line x1="390" y1="19" x2="390" y2="68" stroke="#E6EAEE" stroke-width="1"/><rect x="393" y="23" width="10" height="21" fill="#C9C0A0" stroke="#7C8896" stroke-width="0.8" rx="2" opacity="1.0"/><line x1="408" y1="19" x2="408" y2="68" stroke="#E6EAEE" stroke-width="1"/><rect x="411" y="23" width="10" height="21" fill="#9DBB9A" stroke="#7C8896" stroke-width="0.8" rx="2" opacity="1.0"/><line x1="426" y1="19" x2="426" y2="68" stroke="#E6EAEE" stroke-width="1"/><rect x="429" y="23" width="10" height="21" fill="#C4A38F" stroke="#7C8896" stroke-width="0.8" rx="2" opacity="1.0"/><line x1="444" y1="19" x2="444" y2="68" stroke="#E6EAEE" stroke-width="1"/><rect x="447" y="23" width="10" height="21" fill="#B6A6C9" stroke="#7C8896" stroke-width="0.8" rx="2" opacity="1.0"/><line x1="462" y1="19" x2="462" y2="68" stroke="#E6EAEE" stroke-width="1"/><line x1="480" y1="19" x2="480" y2="68" stroke="#E6EAEE" stroke-width="1"/><rect x="483" y="23" width="10" height="21" fill="#C9C0A0" stroke="#7C8896" stroke-width="0.8" rx="2" opacity="1.0"/><line x1="499" y1="19" x2="499" y2="68" stroke="#E6EAEE" stroke-width="1"/><rect x="501" y="23" width="10" height="21" fill="#C4A38F" stroke="#7C8896" stroke-width="0.8" rx="2" opacity="1.0"/><line x1="517" y1="19" x2="517" y2="68" stroke="#E6EAEE" stroke-width="1"/><rect x="520" y="23" width="10" height="21" fill="#A8B7C6" stroke="#7C8896" stroke-width="0.8" rx="2" opacity="1.0"/></svg>